<?xml version="1.0" encoding="UTF-8"?>
<svg version="1.1" xmlns="http://www.w3.org/2000/svg" width="512" height="512">
<path d="M0 0 C18.21461918 14.72768956 30.26988194 33.33039152 33 57 C34.26600178 81.15141861 27.77129945 103.61667135 11.7734375 122.13671875 C4.77258551 129.3643589 -3.61404954 135.27927462 -13 139 C-13.66 139 -14.32 139 -15 139 C-14.82245902 139.72693526 -14.64491804 140.45387053 -14.46199703 141.20283413 C-9.94086081 159.74540499 -5.60119289 178.32108571 -1.41015625 196.94140625 C-0.96608992 198.91091915 -0.52178974 200.88037921 -0.07749075 202.84983963 C1.30502872 208.97860078 2.68512846 215.10790321 4.0637207 221.23754883 C5.48052094 227.53681155 6.90225646 233.8349473 8.32614225 240.13261181 C9.56075281 245.59409792 10.7920731 251.05631889 12.02080256 256.51913112 C12.74978082 259.75985931 13.48045075 263.00018919 14.21366692 266.23996162 C15.02402341 269.82256898 15.82898945 273.4063458 16.63256836 276.99047852 C16.87404099 278.05262573 17.11551361 279.11477295 17.36430359 280.20910645 C17.68990265 281.6690377 17.68990265 281.6690377 18.02207947 283.15846252 C18.21209502 284.00203088 18.40211058 284.84559923 18.59788418 285.71473026 C19 288 19 288 19 292 C20.02996094 292.01417969 21.05992187 292.02835937 22.12109375 292.04296875 C31.76930609 292.31719553 40.22265854 293.84184948 49.390625 296.84375 C52.27534594 297.76785974 55.02116202 298.49198112 58 299 C58.83917969 297.90558594 58.83917969 297.90558594 59.6953125 296.7890625 C64.12943068 291.01472853 68.57720417 285.2517297 73.05224609 279.5090332 C87.68345275 261.22663303 87.68345275 261.22663303 101 242 C100.49210937 241.35675781 99.98421875 240.71351563 99.4609375 240.05078125 C84.82643904 220.83957634 80.45772895 199.35772501 83.28125 175.63720703 C84.0394337 170.93194483 85.33476318 166.46514248 87 162 C87.2578125 161.3085791 87.515625 160.6171582 87.78125 159.90478516 C96.24769235 138.16543057 112.14113992 124.26087962 133.18017578 114.77783203 C151.17260828 107.08747921 173.2905052 108.1564031 191.25 115.3125 C212.27432741 124.78190216 227.52324733 138.79571306 236.875 160.0625 C237.61958761 162.02831436 238.3289442 164.00788532 239 166 C239.31839844 166.94488281 239.63679688 167.88976562 239.96484375 168.86328125 C245.84847521 189.76779673 241.98906147 213.01636327 232 232 C221.505029 249.72385168 205.3723586 262.42846986 185.5390625 268.4453125 C164.75392576 272.98606545 146.643018 270.56232412 127 263 C126.27296875 263.98097656 125.5459375 264.96195312 124.796875 265.97265625 C119.11590744 273.60866286 113.34142497 281.14591843 107.36889648 288.55615234 C103.30689642 293.59987453 99.32325466 298.69526906 95.41015625 303.85546875 C93.73790456 306.0372558 92.04936215 308.17610285 90.30859375 310.30078125 C89.87893311 310.83807861 89.44927246 311.37537598 89.0065918 311.92895508 C87.8225434 313.40930313 86.62269634 314.87697494 85.421875 316.34375 C83.6858388 318.89555509 83.6858388 318.89555509 84.5625 321.56640625 C85.99744524 323.99567495 87.52964029 326.20180731 89.25 328.4375 C101.39501128 345.51642211 104.69118351 367.11795986 101.34375 387.5625 C98.34617307 402.76770037 92.05848838 416.21978839 82 428 C81.45988281 428.65226562 80.91976563 429.30453125 80.36328125 429.9765625 C67.74116732 443.90221968 46.81667452 452.36532637 28.421875 453.28125 C5.37755049 453.95099391 -16.68408628 447.37515384 -33.70019531 431.32299805 C-49.27155667 416.12421877 -58.8235894 397.15094225 -59.24145508 375.10253906 C-59.33488727 352.11288155 -51.69914918 331.91249036 -36 315 C-19.00478469 299 -19.00478469 299 -11 299 C-11.17754098 298.27306474 -11.35508196 297.54612947 -11.53800297 296.79716587 C-16.05913919 278.25459501 -20.39880711 259.67891429 -24.58984375 241.05859375 C-25.03391008 239.08908085 -25.47821026 237.11962079 -25.92250925 235.15016037 C-27.30502872 229.02139922 -28.68512846 222.89209679 -30.0637207 216.76245117 C-31.48052094 210.46318845 -32.90225646 204.1650527 -34.32614225 197.86738819 C-35.56075281 192.40590208 -36.7920731 186.94368111 -38.02080256 181.48086888 C-38.74978082 178.24014069 -39.48045075 174.99981081 -40.21366692 171.76003838 C-41.02402341 168.17743102 -41.82898945 164.5936542 -42.63256836 161.00952148 C-42.9947773 159.41630066 -42.9947773 159.41630066 -43.36430359 157.79089355 C-43.58136963 156.81760605 -43.79843567 155.84431854 -44.02207947 154.84153748 C-44.3071028 153.57618495 -44.3071028 153.57618495 -44.59788418 152.28526974 C-45 150 -45 150 -45 146 C-46.0415625 145.98582031 -47.083125 145.97164062 -48.15625 145.95703125 C-57.55815462 145.69178415 -65.64558906 144.28744983 -74.51171875 141.15625 C-77.69637639 140.1006412 -80.68233975 139.4484702 -84 139 C-84.83917969 140.09441406 -84.83917969 140.09441406 -85.6953125 141.2109375 C-90.71088546 147.74247141 -95.75051263 154.25436794 -100.8125 160.75 C-105.56776889 166.85517687 -110.29936402 172.97764686 -115 179.125 C-115.77307495 180.13578613 -115.77307495 180.13578613 -116.56176758 181.16699219 C-117.54792267 182.45876392 -118.53007024 183.75360677 -119.5078125 185.05175781 C-120.56248378 186.42876645 -121.64340168 187.78585889 -122.7421875 189.12792969 C-123.30164063 189.82563477 -123.86109375 190.52333984 -124.4375 191.2421875 C-124.95183594 191.86722168 -125.46617187 192.49225586 -125.99609375 193.13623047 C-127.20907664 194.96002601 -127.20907664 194.96002601 -126.7487793 197.10009766 C-125.78057674 199.55674985 -124.40334736 201.3929174 -122.8125 203.5 C-109.97185104 221.5505844 -106.48273613 241.63824141 -109.31347656 263.41113281 C-111.69848027 277.09288042 -117.36336614 290.14884463 -126 301 C-126.58265625 301.75796875 -127.1653125 302.5159375 -127.765625 303.296875 C-138.39484659 316.24844752 -156.59300297 326.53379238 -173.24609375 328.60546875 C-196.97544391 330.86947064 -218.77849757 328.02992237 -238.1875 313.3125 C-241.30195056 310.70436844 -244.20083282 307.94649177 -247 305 C-247.76183594 304.33871094 -247.76183594 304.33871094 -248.5390625 303.6640625 C-260.10484557 293.26013892 -268.23154256 275.58998266 -269.17700195 260.10009766 C-269.6635173 234.80517626 -266.67864422 213.29231358 -249 194 C-248.43667969 193.36835938 -247.87335938 192.73671875 -247.29296875 192.0859375 C-235.44222561 179.48584995 -216.92257472 169.97872397 -199.54321289 168.83886719 C-183.0814427 168.56995044 -169.44821009 169.89509228 -154 176 C-153.64921387 175.54898926 -153.29842773 175.09797852 -152.93701172 174.63330078 C-136.4453125 153.4296875 -136.4453125 153.4296875 -134.71630859 151.20727539 C-133.57003467 149.73309864 -132.42452931 148.25832396 -131.27978516 146.78295898 C-128.23049938 142.85514553 -125.16581731 138.94068498 -122.078125 135.04296875 C-121.43746094 134.23021484 -120.79679688 133.41746094 -120.13671875 132.58007812 C-118.90977739 131.02417422 -117.67824297 129.47187754 -116.44140625 127.92382812 C-112.29906246 122.9279063 -112.29906246 122.9279063 -110 117 C-111.04889988 114.69635149 -111.04889988 114.69635149 -112.9375 112.5625 C-126.29336067 94.73715839 -130.76436498 73.66180185 -127.67041016 51.65576172 C-126.81284203 46.96890644 -125.51627626 42.51391454 -124 38 C-123.649375 36.94683594 -123.29875 35.89367187 -122.9375 34.80859375 C-116.53670289 17.76202644 -103.79899317 3.80031637 -88 -5 C-87.20078125 -5.46019531 -86.4015625 -5.92039062 -85.578125 -6.39453125 C-58.7239345 -20.91861141 -24.68774729 -17.1712678 0 0 Z " fill="#020202" transform="translate(269,37)"/>
<path d="M0 0 C11.67462883 7.78308589 19.53465399 18.53351591 23.25 32.0625 C25.76708055 45.31758473 24.59476418 58.3036608 17.16796875 69.84765625 C15.23052151 72.3812411 13.20648476 74.69847937 11 77 C10.39414062 77.64582031 9.78828125 78.29164063 9.1640625 78.95703125 C-0.96206001 88.76270684 -14.70272543 92.45635429 -28.41821289 92.43383789 C-42.03729703 92.07827519 -54.06424856 84.7789784 -63.3359375 75.08984375 C-74.09478814 61.57814166 -76.6392891 46.82883382 -75 30 C-71.94336586 17.40337771 -63.47459432 8.1660024 -53 1 C-49.75445649 -0.91646357 -46.4661891 -2.52407432 -43 -4 C-42.28328125 -4.3196875 -41.5665625 -4.639375 -40.828125 -4.96875 C-27.42175353 -10.25301321 -12.29170677 -6.43627047 0 0 Z " fill="#A4C1CF" transform="translate(458,183)"/>
<path d="M0 0 C0.79664063 0.24492187 1.59328125 0.48984375 2.4140625 0.7421875 C13.86424268 4.74797809 22.81810197 13.11445292 28.46875 23.76953125 C34.49805516 36.58180472 36.6315362 50.84446404 32.375 64.625 C26.97471945 78.21096896 17.47753381 87.15471927 4.34765625 93.2265625 C-7.37552652 98.12738176 -20.1483991 98.88268188 -32.12890625 94.31640625 C-46.10451908 87.90854023 -56.21930546 78.30864985 -62 64 C-62.50853516 62.76636719 -62.50853516 62.76636719 -63.02734375 61.5078125 C-67.43280587 49.12379456 -65.30317292 36.67211667 -60 25 C-53.4135599 13.69491624 -44.6992789 6.57108519 -33 1 C-32.28199219 0.65710938 -31.56398438 0.31421875 -30.82421875 -0.0390625 C-21.39801145 -3.8379483 -9.56149486 -3.09237938 0 0 Z " fill="#75C485" transform="translate(306,362)"/>
<path d="M0 0 C0.78503906 0.25652344 1.57007812 0.51304687 2.37890625 0.77734375 C14.46214208 5.07565512 23.39879573 13.68146386 29.3125 24.9375 C35.53984965 38.30554392 36.3229417 54.18599947 31.328125 68.16796875 C29.18737282 72.73280796 26.39976689 76.30903252 23 80 C22.51144531 80.60199219 22.02289063 81.20398438 21.51953125 81.82421875 C17.81651097 86.06032164 13.45473558 88.66133645 8.5625 91.3125 C7.63147461 91.81922241 7.63147461 91.81922241 6.68164062 92.33618164 C-4.33768795 98.03478991 -17.43459147 99.04578251 -29.3125 95.4375 C-43.77230481 89.8338358 -54.64195701 80.16109575 -61 66 C-61.26925293 65.41476562 -61.53850586 64.82953125 -61.81591797 64.2265625 C-64.10481604 58.81668618 -64.4715075 53.95871172 -64.375 48.125 C-64.36484863 47.24021973 -64.35469727 46.35543945 -64.34423828 45.44384766 C-64.02859837 32.17963085 -59.03604115 21.65249214 -50.02734375 11.875 C-36.50482488 -0.63137584 -17.64511208 -6.08452141 0 0 Z " fill="#ED3554" transform="translate(95,237)"/>
<path d="M0 0 C0.71671875 -0.00773437 1.4334375 -0.01546875 2.171875 -0.0234375 C15.40573738 0.02433818 26.91130105 5.75575125 36.37109375 14.8359375 C42.92112347 21.85139395 46.8959363 29.06508668 49.625 38.25 C49.81835938 38.848125 50.01171875 39.44625 50.2109375 40.0625 C52.7862092 53.66770896 50.14448527 66.74454116 42.625 78.25 C34.86659769 89.46984334 21.88862109 96.68945539 8.625 99.25 C-7.51280271 100.53344976 -19.165929 95.82899021 -31.9375 86.34765625 C-40.16161961 79.2701687 -46.74263191 68.0335225 -48.375 57.25 C-49.42286612 42.41866415 -46.50938911 29.0252986 -37.03125 17.3671875 C-27.33077257 6.89637804 -14.49881775 -0.15479165 0 0 Z " fill="#FDC717" transform="translate(220.375,52.75)"/>
<path d="M0 0 C3.88132338 2.7716993 7.54569953 5.70889483 11 9 C11 9.33 11 9.66 11 10 C9.58460938 10.05607422 9.58460938 10.05607422 8.140625 10.11328125 C-9.98247151 11.04127113 -26.74914203 15.90608959 -40 29 C-52.54314101 43.19516445 -58.03898174 59.30985175 -59 78 C-66.45035848 72.91195031 -71.15861363 64.47249754 -74 56 C-76.6634066 41.66257096 -76.35690597 28.10005872 -68.4609375 15.5546875 C-61.99214106 6.5106356 -53.14268458 0.31882053 -43 -4 C-42.28328125 -4.3196875 -41.5665625 -4.639375 -40.828125 -4.96875 C-27.47493014 -10.23205308 -12.23141202 -6.48729321 0 0 Z " fill="#93AEBB" transform="translate(458,183)"/>
<path d="M0 0 C0.79664063 0.24492187 1.59328125 0.48984375 2.4140625 0.7421875 C10.16120547 3.45248829 17.39862132 8.09793197 22 15 C20.98421875 15.03738281 19.9684375 15.07476562 18.921875 15.11328125 C-1.57263261 16.01870128 -17.76028834 22.01999752 -32 37 C-43.79399031 50.0276713 -47.26768031 65.92937542 -48 83 C-57.74324374 75.59513476 -62.55785165 65.92423272 -65 54 C-66.55727662 41.27981526 -63.46245834 29.48914112 -56.1875 19 C-49.66368593 10.78437594 -42.45685797 5.5032657 -33 1 C-32.28199219 0.65710938 -31.56398438 0.31421875 -30.82421875 -0.0390625 C-21.39801145 -3.8379483 -9.56149486 -3.09237938 0 0 Z " fill="#69B077" transform="translate(306,362)"/>
<path d="M0 0 C0.78503906 0.25652344 1.57007812 0.51304687 2.37890625 0.77734375 C10.34314633 3.61042457 17.11065956 8.01084877 22 15 C20.9584375 15.01417969 19.916875 15.02835938 18.84375 15.04296875 C0.12140923 15.55403865 -15.56499404 20.90780153 -29.4375 33.875 C-42.42333689 47.91524244 -47.01001981 64.45089741 -48 83 C-54.37104163 78.28542919 -57.7203944 73.18120536 -61 66 C-61.27215332 65.41041504 -61.54430664 64.82083008 -61.82470703 64.21337891 C-64.10964477 58.81052375 -64.47137179 53.95050883 -64.375 48.125 C-64.36484863 47.24021973 -64.35469727 46.35543945 -64.34423828 45.44384766 C-64.02859837 32.17963085 -59.03604115 21.65249214 -50.02734375 11.875 C-36.50482488 -0.63137584 -17.64511208 -6.08452141 0 0 Z " fill="#D6304C" transform="translate(95,237)"/>
<path d="M0 0 C0.71671875 -0.00773437 1.4334375 -0.01546875 2.171875 -0.0234375 C14.84964854 0.02233064 26.01905059 5.28964414 35.296875 13.83203125 C36.625 15.25 36.625 15.25 36.625 16.25 C35.93277344 16.27578125 35.24054688 16.3015625 34.52734375 16.328125 C14.86631271 17.46789492 -1.80716354 24.39704081 -15.59375 38.5234375 C-26.95716654 51.67877742 -31.49748433 68.18383322 -32.375 85.25 C-41.1037488 77.29143492 -47.73510078 66.30703511 -48.578125 54.375 C-48.81201292 38.78247173 -45.07810453 26.05305695 -34.375 14.5 C-25.06255691 5.59521516 -12.96845493 -0.13845326 0 0 Z " fill="#E4B315" transform="translate(220.375,52.75)"/>
</svg>
